<?xml version="1.0" encoding="utf-8"?>
<!-- Generator: Adobe Illustrator 24.2.1, SVG Export Plug-In . SVG Version: 6.00 Build 0)  -->
<svg version="1.1" id="Layer_1" xmlns="http://www.w3.org/2000/svg" xmlns:xlink="http://www.w3.org/1999/xlink" x="0px" y="0px"
	 viewBox="0 0 150 150" style="enable-background:new 0 0 150 150;" xml:space="preserve">
<style type="text/css">
	.st0{fill:#FFFFFF;}
	.st1{fill:#FFFFFF;stroke:#000000;stroke-linecap:round;stroke-linejoin:bevel;stroke-miterlimit:10;}
</style>
<rect width="150" height="150"/>
<g>
	<path class="st0" d="M77.16,103.25c-9.82,9.82-21.85,9.16-31.73-0.72c-10.6-10.6-10.36-22.93-0.9-32.39
		c3.35-3.35,6.88-5.45,9.82-6.47l-2.99-5.51c-2.09,0.66-6.35,2.75-11.38,7.78c-12.51,12.51-12.51,29.64,0.12,42.27
		c13.23,13.23,28.98,11.85,40.35,0.48c4.91-4.91,7.78-9.7,8.74-12.57l-5.21-3.05C82.91,96.18,80.34,100.08,77.16,103.25z"/>
	
		<ellipse transform="matrix(0.7071 -0.7071 0.7071 0.7071 -42.9241 68.6191)" class="st0" cx="61.37" cy="86.12" rx="20.52" ry="20.52"/>
	<polygon class="st0" points="69.7,54.06 68.37,51.99 52.89,53.66 52.85,53.6 60.77,40.2 59.44,38.13 50.16,54.23 51.2,55.84 	"/>
	<polygon class="st0" points="93.33,93.13 93.27,93.09 97.5,78.1 95.69,76.45 90.84,94.38 92.26,95.68 109.68,89.21 107.86,87.56 	
		"/>
	<polygon class="st0" points="91.27,54.53 86.42,72.47 87.84,73.77 105.26,67.3 103.45,65.65 88.91,71.22 88.86,71.17 93.09,56.19 	
		"/>
	<polygon class="st0" points="73.42,57.1 73.37,57.06 77.6,42.07 75.78,40.42 70.93,58.35 72.35,59.65 89.77,53.18 87.96,51.53 	"/>
	
		<rect x="64.6" y="30.24" transform="matrix(0.5152 -0.8571 0.8571 0.5152 8.0766 76.3707)" class="st0" width="13.89" height="1.62"/>
	
		<rect x="60.08" y="27.52" transform="matrix(0.5155 -0.8569 0.8569 0.5155 8.1989 71.1573)" class="st0" width="13.89" height="1.61"/>
	
		<rect x="113.09" y="83.6" transform="matrix(0.9154 -0.4026 0.4026 0.9154 -23.8229 55.4608)" class="st0" width="13.89" height="1.61"/>
	
		<rect x="110.96" y="78.77" transform="matrix(0.9154 -0.4026 0.4026 0.9154 -22.0593 54.2015)" class="st0" width="13.89" height="1.62"/>
	
		<rect x="73.21" y="32.03" transform="matrix(0.5155 -0.8569 0.8569 0.5155 10.6977 84.5958)" class="st0" width="13.89" height="1.61"/>
	
		<rect x="77.73" y="34.75" transform="matrix(0.5152 -0.8571 0.8571 0.5152 10.5785 89.8129)" class="st0" width="13.89" height="1.62"/>
	
		<rect x="103.11" y="56.84" transform="matrix(0.8858 -0.4642 0.4642 0.8858 -14.1825 57.6678)" class="st0" width="13.89" height="1.61"/>
	
		<rect x="105.56" y="61.51" transform="matrix(0.8858 -0.4641 0.4641 0.8858 -16.0717 59.3344)" class="st0" width="13.89" height="1.62"/>
	
		<rect x="89.1" y="44.01" transform="matrix(0.6603 -0.751 0.751 0.6603 -1.0326 87.3539)" class="st0" width="13.89" height="1.61"/>
	
		<rect x="93.06" y="47.49" transform="matrix(0.6603 -0.751 0.751 0.6603 -2.3008 91.5169)" class="st0" width="13.89" height="1.62"/>
</g>
<path class="st1" d="M16.51,20.66c0,0,2.39,5.37-4.98,11.94c0,0,8.36-0.2,7.96,10.75c0,0,0.6-13.14,5.57-13.53
	C25.06,29.82,19.29,28.82,16.51,20.66z"/>
<path class="st1" d="M30.42,6.68c0,0,3.02,6.79-6.28,15.08c0,0,10.56-0.25,10.06,13.58c0,0,0.75-16.59,7.04-17.1
	C41.23,18.25,33.94,16.99,30.42,6.68z"/>
<path class="st1" d="M131.39,120.11c0,0,2.13,4.8-4.45,10.67c0,0,7.47-0.18,7.11,9.6c0,0,0.53-11.74,4.98-12.09
	C139.03,128.29,133.87,127.4,131.39,120.11z"/>
<path class="st1" d="M113.72,113.88c0,0,2.57,5.78-5.35,12.84c0,0,8.99-0.21,8.56,11.55c0,0,0.64-14.12,5.99-14.55
	C122.92,123.72,116.71,122.65,113.72,113.88z"/>
</svg>
